# Blender v2.78 (sub 0) OBJ File: 'weird_prism.blend'
# www.blender.org
mtllib weird_prism.mtl
o Pyramid_Cube
v -0.500000 3.000000 0.000000
v 0.000000 3.000000 0.500000
v 0.500000 3.000000 0.000000
v 0.000000 3.000000 -0.500000
v 0.000000 4.500000 0.000000
v 0.000000 1.500000 -0.500000
v 0.500000 1.500000 -0.500000
v -0.500000 1.500000 -0.500000
v 0.000000 1.500000 -1.000000
v 0.000000 1.500000 0.500000
v 0.500000 1.500000 0.500000
v 0.000000 1.500000 1.000000
v -0.500000 1.500000 0.500000
v -1.000000 1.500000 0.000000
v 1.000000 1.500000 0.000000
v 0.000000 0.000000 -1.500000
v 0.000000 0.000000 1.500000
v -1.500000 0.000000 0.000000
v 1.500000 0.000000 0.000000
vn 0.0000 1.0000 0.0000
vn -0.6882 0.2294 -0.6882
vn 0.6882 0.2294 -0.6882
vn 0.6882 0.2294 0.6882
vn -0.6882 0.2294 0.6882
vn 0.0000 0.0000 -1.0000
vn 0.0000 0.0000 1.0000
usemtl Material
s off
f 1//1 2//1 3//1 4//1
f 4//2 1//2 5//2
f 4//3 5//3 3//3
f 3//4 5//4 2//4
f 2//5 5//5 1//5
f 15//3 7//3 3//3
f 6//6 4//6 7//6
f 7//3 4//3 3//3
f 7//1 9//1 6//1
f 8//1 6//1 9//1
f 6//6 8//6 4//6
f 4//2 8//2 1//2
f 14//2 1//2 8//2
f 12//1 10//1 13//1
f 11//1 10//1 12//1
f 10//7 11//7 2//7
f 10//7 2//7 13//7
f 11//4 15//4 3//4
f 11//4 3//4 2//4
f 2//5 1//5 13//5
f 14//5 13//5 1//5
f 13//5 14//5 18//5
f 13//5 18//5 17//5
f 13//5 17//5 12//5
f 12//4 17//4 11//4
f 19//4 11//4 17//4
f 11//4 19//4 15//4
f 7//3 15//3 19//3
f 7//3 19//3 16//3
f 9//3 7//3 16//3
f 9//2 16//2 8//2
f 18//2 8//2 16//2
f 8//2 18//2 14//2
